<svg xmlns="http://www.w3.org/2000/svg" viewBox="0 0 640 654" width="960" height="981" role="img" aria-labelledby="wvfTitle wvfDesc" font-family="system-ui, -apple-system, 'Segoe UI', Helvetica, Arial, sans-serif">
  <title id="wvfTitle">The same pasture seen from the road and from the air</title>
  <desc id="wvfDesc">One pasture drawn twice, one panel above the other. In the top panel, only the brush in a wedge near the road is visible and the rest of the pasture is greyed out and labelled as estimated. In the bottom panel, every woody plant is marked individually, filled circles for mesquite and open circles for juniper, showing the brush clumped along the draw and thin on the open flat.</desc>
  <defs>
    <clipPath id="pastureTop"><rect x="10" y="42" width="620" height="250" rx="10"/></clipPath>
    <clipPath id="pastureBot"><rect x="10" y="350" width="620" height="250" rx="10"/></clipPath>
  </defs>
  <rect width="640" height="654" fill="#FFFFFF"/>
  <text x="10" y="30" font-size="32" font-weight="600" fill="#322B2B">From the fence line</text>
  <text x="10" y="338" font-size="32" font-weight="600" fill="#C52C03">From the air</text>
  <rect x="10" y="42" width="620" height="250" rx="10" fill="#F4F1EF" stroke="#CFC6C1" stroke-width="1.5"/><g clip-path="url(#pastureTop)"><path d="M 41 112 Q 289 197 599 157" fill="none" stroke="#8FAEC4" stroke-width="7" stroke-linecap="round" opacity="0.55"/><polygon points="270.4,307 72,157 481.2,174.5" fill="#FFFFFF" opacity="0.75"/><circle cx="207" cy="117.2" r="7.1" fill="#E7E1DD"/><circle cx="62.6" cy="148.3" r="4.6" fill="#E7E1DD"/><circle cx="180.8" cy="139.9" r="7.5" fill="#E7E1DD"/><circle cx="404.3" cy="149.5" r="6.8" fill="#E7E1DD"/><circle cx="181.2" cy="107.7" r="11" fill="#E7E1DD"/><circle cx="592.3" cy="131.6" r="5.9" fill="#E7E1DD"/><circle cx="555" cy="157.3" r="13.1" fill="#E7E1DD"/><circle cx="366.2" cy="150.9" r="6.5" fill="#E7E1DD"/><circle cx="341.8" cy="160.6" r="7.6" fill="#E7E1DD"/><circle cx="362.9" cy="241.5" r="5.7" fill="#322B2B"/><circle cx="167.9" cy="112.2" r="10.6" fill="#E7E1DD"/><circle cx="579.1" cy="163.5" r="7.7" fill="#E7E1DD"/><circle cx="235.8" cy="172.9" r="12.8" fill="#322B2B"/><circle cx="268.2" cy="196.3" r="5" fill="none" stroke="#322B2B" stroke-width="1.6"/><circle cx="198.2" cy="220.2" r="6.1" fill="none" stroke="#322B2B" stroke-width="1.6"/><circle cx="320.6" cy="99" r="7.8" fill="#E7E1DD"/><circle cx="351.9" cy="186.4" r="6.1" fill="#322B2B"/><circle cx="396.9" cy="183.6" r="6.4" fill="none" stroke="#322B2B" stroke-width="1.6"/><circle cx="367" cy="175.8" r="6.8" fill="#322B2B"/><circle cx="49.4" cy="90" r="12.8" fill="#E7E1DD"/><circle cx="207.8" cy="109" r="5.7" fill="#E7E1DD"/><circle cx="326.1" cy="173.8" r="4.9" fill="#322B2B"/><circle cx="431.6" cy="163.5" r="10.9" fill="#E7E1DD"/><circle cx="195.2" cy="104.6" r="5.8" fill="#E7E1DD"/><circle cx="72.9" cy="155.2" r="5.2" fill="#E7E1DD"/><circle cx="214.1" cy="62.6" r="4.6" fill="#E7E1DD"/><circle cx="481.7" cy="141.5" r="6.8" fill="#E7E1DD"/><circle cx="327.4" cy="185.5" r="7.5" fill="#322B2B"/><circle cx="484.8" cy="130.8" r="4.6" fill="#E7E1DD"/><circle cx="219.9" cy="114.4" r="8.1" fill="#E7E1DD"/><circle cx="414.6" cy="166.8" r="6.5" fill="#E7E1DD"/><circle cx="229.9" cy="151.9" r="12.2" fill="#E7E1DD"/><circle cx="609" cy="61.6" r="6.4" fill="#E7E1DD"/><circle cx="41.3" cy="185.5" r="6.8" fill="#E7E1DD"/><circle cx="411" cy="155.8" r="7.2" fill="#E7E1DD"/><circle cx="340.7" cy="192" r="6.1" fill="#322B2B"/><circle cx="157.3" cy="195.2" r="6.7" fill="none" stroke="#322B2B" stroke-width="1.6"/><circle cx="518.4" cy="181.9" r="4.8" fill="#E7E1DD"/><circle cx="415.2" cy="168.8" r="11.8" fill="#E7E1DD"/><circle cx="116.6" cy="124.6" r="13" fill="#E7E1DD"/><circle cx="494.1" cy="156.9" r="5.7" fill="#E7E1DD"/><circle cx="458.2" cy="54.9" r="6" fill="#E7E1DD"/><circle cx="147.3" cy="94.3" r="13.1" fill="#E7E1DD"/><circle cx="101.2" cy="114.7" r="6.5" fill="#E7E1DD"/><circle cx="419.6" cy="161" r="12.3" fill="#E7E1DD"/><circle cx="327.8" cy="173.1" r="6.1" fill="#322B2B"/><circle cx="506.4" cy="206.9" r="7.3" fill="#E7E1DD"/><circle cx="250.8" cy="123.2" r="7.3" fill="#E7E1DD"/><circle cx="233.3" cy="60.6" r="6.2" fill="#E7E1DD"/><circle cx="142.4" cy="208.3" r="9.6" fill="#322B2B"/><circle cx="498" cy="60.2" r="6.8" fill="#E7E1DD"/><circle cx="303.7" cy="212.7" r="7.6" fill="#322B2B"/><circle cx="181.1" cy="151.5" r="6" fill="#E7E1DD"/><circle cx="144.4" cy="119.3" r="6.5" fill="#E7E1DD"/><circle cx="449.1" cy="159.3" r="11.2" fill="#E7E1DD"/><circle cx="151.4" cy="113.3" r="13.1" fill="#E7E1DD"/><circle cx="49.2" cy="210" r="6.5" fill="#E7E1DD"/><circle cx="388.5" cy="66.6" r="6.1" fill="#E7E1DD"/><circle cx="471.1" cy="210.6" r="6.5" fill="#E7E1DD"/><circle cx="334.1" cy="213.5" r="7.3" fill="#322B2B"/><circle cx="461.5" cy="96.7" r="11.8" fill="#E7E1DD"/><circle cx="284.7" cy="99.2" r="6.4" fill="#E7E1DD"/><circle cx="290.6" cy="163.2" r="4.9" fill="#E7E1DD"/><circle cx="83.6" cy="106.6" r="7.9" fill="#E7E1DD"/><circle cx="401.6" cy="156.9" r="11.9" fill="#E7E1DD"/><circle cx="569.5" cy="124" r="6.1" fill="#E7E1DD"/><circle cx="107.5" cy="149.7" r="7.3" fill="#E7E1DD"/><circle cx="248" cy="124.9" r="6.9" fill="#E7E1DD"/><circle cx="608.7" cy="104" r="5.8" fill="#E7E1DD"/><circle cx="169.1" cy="61.3" r="9.2" fill="#E7E1DD"/><circle cx="36.8" cy="152.9" r="5.1" fill="#E7E1DD"/><circle cx="117.6" cy="103.9" r="5" fill="#E7E1DD"/><circle cx="546.6" cy="172.5" r="4.7" fill="#E7E1DD"/><circle cx="533.3" cy="212" r="7.9" fill="#E7E1DD"/><circle cx="178.9" cy="136.4" r="5.8" fill="#E7E1DD"/><circle cx="255.5" cy="145.6" r="5.2" fill="#E7E1DD"/><circle cx="539.3" cy="160.3" r="7.7" fill="#E7E1DD"/><circle cx="604.8" cy="164.2" r="4.6" fill="#E7E1DD"/><circle cx="320.9" cy="180.8" r="10.6" fill="#322B2B"/><circle cx="336.9" cy="79.5" r="4.7" fill="#E7E1DD"/><circle cx="148" cy="118.1" r="5.7" fill="#E7E1DD"/><circle cx="166" cy="203.6" r="5.1" fill="#322B2B"/><circle cx="502.6" cy="235.8" r="11.6" fill="#E7E1DD"/><circle cx="551.9" cy="90.7" r="6.1" fill="#E7E1DD"/><circle cx="588.5" cy="166.1" r="6" fill="#E7E1DD"/><circle cx="399.2" cy="172.1" r="10.4" fill="#322B2B"/><circle cx="354.3" cy="135.8" r="5.5" fill="#E7E1DD"/><circle cx="146.8" cy="79.3" r="8" fill="#E7E1DD"/><circle cx="536.8" cy="222.5" r="5.4" fill="#E7E1DD"/><circle cx="422.7" cy="197" r="5.6" fill="none" stroke="#322B2B" stroke-width="1.6"/><circle cx="556.1" cy="192.7" r="11.5" fill="#E7E1DD"/><circle cx="402.8" cy="173.5" r="13.1" fill="#322B2B"/><circle cx="309.4" cy="106.4" r="6.1" fill="#E7E1DD"/><circle cx="175.8" cy="155.5" r="6.7" fill="#E7E1DD"/><circle cx="495.1" cy="147.2" r="7.8" fill="#E7E1DD"/><circle cx="403.5" cy="170.7" r="7.4" fill="#E7E1DD"/><circle cx="491.2" cy="214.3" r="7.3" fill="#E7E1DD"/><circle cx="363.7" cy="220.9" r="7.7" fill="#322B2B"/><circle cx="250.2" cy="178.5" r="6.7" fill="#322B2B"/><circle cx="352.5" cy="226.4" r="10" fill="#322B2B"/><circle cx="125.6" cy="156.7" r="5.7" fill="#E7E1DD"/><circle cx="242.5" cy="153.4" r="7.6" fill="#E7E1DD"/><circle cx="191" cy="165.1" r="6.1" fill="#322B2B"/><circle cx="495" cy="212.7" r="4.8" fill="#E7E1DD"/><circle cx="454.9" cy="121.8" r="5.3" fill="#E7E1DD"/><circle cx="381" cy="195.8" r="6.9" fill="#322B2B"/><circle cx="411.1" cy="174.6" r="7.4" fill="#322B2B"/></g><line x1="24" y1="272" x2="616" y2="272" stroke="#CFC6C1" stroke-width="10" stroke-linecap="round"/><line x1="24" y1="272" x2="616" y2="272" stroke="#FFFFFF" stroke-width="2" stroke-dasharray="10 12" stroke-linecap="round"/><g transform="translate(270.4 272)">
      <rect x="-26" y="-13" width="38" height="16" rx="3" fill="#322B2B"/>
      <path d="M 12 3 L 12 -9 L 22 -9 L 29 3 Z" fill="#322B2B"/>
      <circle cx="-15" cy="4" r="5.5" fill="#322B2B"/>
      <circle cx="19" cy="4" r="5.5" fill="#322B2B"/>
    </g><rect x="170" y="82" width="300" height="42" rx="21" fill="#FFFFFF" opacity="0.92"/><text x="320" y="112" text-anchor="middle" font-size="28" fill="#7A716E" font-style="italic">the rest is estimated</text>
  <rect x="10" y="350" width="620" height="250" rx="10" fill="#F4F1EF" stroke="#CFC6C1" stroke-width="1.5"/><g clip-path="url(#pastureBot)"><path d="M 41 420 Q 289 505 599 465" fill="none" stroke="#8FAEC4" stroke-width="7" stroke-linecap="round" opacity="0.55"/><circle cx="207" cy="425.2" r="7.1" fill="#322B2B"/><circle cx="62.6" cy="456.3" r="4.6" fill="#322B2B"/><circle cx="180.8" cy="447.9" r="7.5" fill="#322B2B"/><circle cx="404.3" cy="457.5" r="6.8" fill="none" stroke="#322B2B" stroke-width="1.6"/><circle cx="181.2" cy="415.7" r="11" fill="none" stroke="#322B2B" stroke-width="1.6"/><circle cx="592.3" cy="439.6" r="5.9" fill="#322B2B"/><circle cx="555" cy="465.3" r="13.1" fill="#322B2B"/><circle cx="366.2" cy="458.9" r="6.5" fill="none" stroke="#322B2B" stroke-width="1.6"/><circle cx="341.8" cy="468.6" r="7.6" fill="#322B2B"/><circle cx="362.9" cy="549.5" r="5.7" fill="#322B2B"/><circle cx="167.9" cy="420.2" r="10.6" fill="#322B2B"/><circle cx="579.1" cy="471.5" r="7.7" fill="#322B2B"/><circle cx="235.8" cy="480.9" r="12.8" fill="#322B2B"/><circle cx="268.2" cy="504.3" r="5" fill="none" stroke="#322B2B" stroke-width="1.6"/><circle cx="198.2" cy="528.2" r="6.1" fill="none" stroke="#322B2B" stroke-width="1.6"/><circle cx="320.6" cy="407" r="7.8" fill="#322B2B"/><circle cx="351.9" cy="494.4" r="6.1" fill="#322B2B"/><circle cx="396.9" cy="491.6" r="6.4" fill="none" stroke="#322B2B" stroke-width="1.6"/><circle cx="367" cy="483.8" r="6.8" fill="#322B2B"/><circle cx="49.4" cy="398" r="12.8" fill="#322B2B"/><circle cx="207.8" cy="417" r="5.7" fill="none" stroke="#322B2B" stroke-width="1.6"/><circle cx="326.1" cy="481.8" r="4.9" fill="#322B2B"/><circle cx="431.6" cy="471.5" r="10.9" fill="#322B2B"/><circle cx="195.2" cy="412.6" r="5.8" fill="#322B2B"/><circle cx="72.9" cy="463.2" r="5.2" fill="#322B2B"/><circle cx="214.1" cy="370.6" r="4.6" fill="none" stroke="#322B2B" stroke-width="1.6"/><circle cx="481.7" cy="449.5" r="6.8" fill="#322B2B"/><circle cx="327.4" cy="493.5" r="7.5" fill="#322B2B"/><circle cx="484.8" cy="438.8" r="4.6" fill="none" stroke="#322B2B" stroke-width="1.6"/><circle cx="219.9" cy="422.4" r="8.1" fill="none" stroke="#322B2B" stroke-width="1.6"/><circle cx="414.6" cy="474.8" r="6.5" fill="#322B2B"/><circle cx="229.9" cy="459.9" r="12.2" fill="#322B2B"/><circle cx="609" cy="369.6" r="6.4" fill="#322B2B"/><circle cx="41.3" cy="493.5" r="6.8" fill="#322B2B"/><circle cx="411" cy="463.8" r="7.2" fill="none" stroke="#322B2B" stroke-width="1.6"/><circle cx="340.7" cy="500" r="6.1" fill="#322B2B"/><circle cx="157.3" cy="503.2" r="6.7" fill="none" stroke="#322B2B" stroke-width="1.6"/><circle cx="518.4" cy="489.9" r="4.8" fill="#322B2B"/><circle cx="415.2" cy="476.8" r="11.8" fill="#322B2B"/><circle cx="116.6" cy="432.6" r="13" fill="none" stroke="#322B2B" stroke-width="1.6"/><circle cx="494.1" cy="464.9" r="5.7" fill="#322B2B"/><circle cx="458.2" cy="362.9" r="6" fill="#322B2B"/><circle cx="147.3" cy="402.3" r="13.1" fill="none" stroke="#322B2B" stroke-width="1.6"/><circle cx="101.2" cy="422.7" r="6.5" fill="#322B2B"/><circle cx="419.6" cy="469" r="12.3" fill="#322B2B"/><circle cx="327.8" cy="481.1" r="6.1" fill="#322B2B"/><circle cx="506.4" cy="514.9" r="7.3" fill="#322B2B"/><circle cx="250.8" cy="431.2" r="7.3" fill="none" stroke="#322B2B" stroke-width="1.6"/><circle cx="233.3" cy="368.6" r="6.2" fill="#322B2B"/><circle cx="142.4" cy="516.3" r="9.6" fill="#322B2B"/><circle cx="498" cy="368.2" r="6.8" fill="#322B2B"/><circle cx="303.7" cy="520.7" r="7.6" fill="#322B2B"/><circle cx="181.1" cy="459.5" r="6" fill="#322B2B"/><circle cx="144.4" cy="427.3" r="6.5" fill="none" stroke="#322B2B" stroke-width="1.6"/><circle cx="449.1" cy="467.3" r="11.2" fill="none" stroke="#322B2B" stroke-width="1.6"/><circle cx="151.4" cy="421.3" r="13.1" fill="#322B2B"/><circle cx="49.2" cy="518" r="6.5" fill="none" stroke="#322B2B" stroke-width="1.6"/><circle cx="388.5" cy="374.6" r="6.1" fill="none" stroke="#322B2B" stroke-width="1.6"/><circle cx="471.1" cy="518.6" r="6.5" fill="#322B2B"/><circle cx="334.1" cy="521.5" r="7.3" fill="#322B2B"/><circle cx="461.5" cy="404.7" r="11.8" fill="none" stroke="#322B2B" stroke-width="1.6"/><circle cx="284.7" cy="407.2" r="6.4" fill="none" stroke="#322B2B" stroke-width="1.6"/><circle cx="290.6" cy="471.2" r="4.9" fill="#322B2B"/><circle cx="83.6" cy="414.6" r="7.9" fill="none" stroke="#322B2B" stroke-width="1.6"/><circle cx="401.6" cy="464.9" r="11.9" fill="#322B2B"/><circle cx="569.5" cy="432" r="6.1" fill="#322B2B"/><circle cx="107.5" cy="457.7" r="7.3" fill="#322B2B"/><circle cx="248" cy="432.9" r="6.9" fill="none" stroke="#322B2B" stroke-width="1.6"/><circle cx="608.7" cy="412" r="5.8" fill="#322B2B"/><circle cx="169.1" cy="369.3" r="9.2" fill="#322B2B"/><circle cx="36.8" cy="460.9" r="5.1" fill="none" stroke="#322B2B" stroke-width="1.6"/><circle cx="117.6" cy="411.9" r="5" fill="#322B2B"/><circle cx="546.6" cy="480.5" r="4.7" fill="none" stroke="#322B2B" stroke-width="1.6"/><circle cx="533.3" cy="520" r="7.9" fill="none" stroke="#322B2B" stroke-width="1.6"/><circle cx="178.9" cy="444.4" r="5.8" fill="#322B2B"/><circle cx="255.5" cy="453.6" r="5.2" fill="none" stroke="#322B2B" stroke-width="1.6"/><circle cx="539.3" cy="468.3" r="7.7" fill="#322B2B"/><circle cx="604.8" cy="472.2" r="4.6" fill="#322B2B"/><circle cx="320.9" cy="488.8" r="10.6" fill="#322B2B"/><circle cx="336.9" cy="387.5" r="4.7" fill="#322B2B"/><circle cx="148" cy="426.1" r="5.7" fill="#322B2B"/><circle cx="166" cy="511.6" r="5.1" fill="#322B2B"/><circle cx="502.6" cy="543.8" r="11.6" fill="none" stroke="#322B2B" stroke-width="1.6"/><circle cx="551.9" cy="398.7" r="6.1" fill="#322B2B"/><circle cx="588.5" cy="474.1" r="6" fill="#322B2B"/><circle cx="399.2" cy="480.1" r="10.4" fill="#322B2B"/><circle cx="354.3" cy="443.8" r="5.5" fill="none" stroke="#322B2B" stroke-width="1.6"/><circle cx="146.8" cy="387.3" r="8" fill="none" stroke="#322B2B" stroke-width="1.6"/><circle cx="536.8" cy="530.5" r="5.4" fill="#322B2B"/><circle cx="422.7" cy="505" r="5.6" fill="none" stroke="#322B2B" stroke-width="1.6"/><circle cx="556.1" cy="500.7" r="11.5" fill="#322B2B"/><circle cx="402.8" cy="481.5" r="13.1" fill="#322B2B"/><circle cx="309.4" cy="414.4" r="6.1" fill="none" stroke="#322B2B" stroke-width="1.6"/><circle cx="175.8" cy="463.5" r="6.7" fill="#322B2B"/><circle cx="495.1" cy="455.2" r="7.8" fill="#322B2B"/><circle cx="403.5" cy="478.7" r="7.4" fill="#322B2B"/><circle cx="491.2" cy="522.3" r="7.3" fill="none" stroke="#322B2B" stroke-width="1.6"/><circle cx="363.7" cy="528.9" r="7.7" fill="#322B2B"/><circle cx="250.2" cy="486.5" r="6.7" fill="#322B2B"/><circle cx="352.5" cy="534.4" r="10" fill="#322B2B"/><circle cx="125.6" cy="464.7" r="5.7" fill="#322B2B"/><circle cx="242.5" cy="461.4" r="7.6" fill="none" stroke="#322B2B" stroke-width="1.6"/><circle cx="191" cy="473.1" r="6.1" fill="#322B2B"/><circle cx="495" cy="520.7" r="4.8" fill="#322B2B"/><circle cx="454.9" cy="429.8" r="5.3" fill="#322B2B"/><circle cx="381" cy="503.8" r="6.9" fill="#322B2B"/><circle cx="411.1" cy="482.6" r="7.4" fill="#322B2B"/></g><line x1="24" y1="580" x2="616" y2="580" stroke="#CFC6C1" stroke-width="10" stroke-linecap="round"/><line x1="24" y1="580" x2="616" y2="580" stroke="#FFFFFF" stroke-width="2" stroke-dasharray="10 12" stroke-linecap="round"/>
  
    <g transform="translate(10 634)" font-size="24" fill="#322B2B">
      <circle cx="10" cy="-7" r="8" fill="#322B2B"/>
      <text x="28" y="0">mesquite</text>
      <circle cx="210" cy="-7" r="8" fill="none" stroke="#322B2B" stroke-width="2"/>
      <text x="228" y="0">juniper (cedar)</text>
    </g>
</svg>
